<?xml version="1.0" encoding="UTF-8" standalone="no"?>
<svg
   fill="#ffffff"
   width="357.25px"
   height="124px"
   viewBox="0 0 357.25 124"
   version="1.1"
   id="svg6"
   sodipodi:docname="logo.svg"
   inkscape:version="1.3.2 (091e20e, 2023-11-25)"
   xmlns:inkscape="http://www.inkscape.org/namespaces/inkscape"
   xmlns:sodipodi="http://sodipodi.sourceforge.net/DTD/sodipodi-0.dtd"
   xmlns="http://www.w3.org/2000/svg"
   xmlns:svg="http://www.w3.org/2000/svg">
  <defs
     id="defs6">
    <rect
       x="88.271186"
       y="31.525424"
       width="278.47457"
       height="62.525424"
       id="rect6" />
  </defs>
  <sodipodi:namedview
     id="namedview6"
     pagecolor="#ffffff"
     bordercolor="#000000"
     borderopacity="0.25"
     inkscape:showpageshadow="2"
     inkscape:pageopacity="0.0"
     inkscape:pagecheckerboard="0"
     inkscape:deskcolor="#d1d1d1"
     inkscape:zoom="1.9032258"
     inkscape:cx="171.28814"
     inkscape:cy="65.940678"
     inkscape:window-width="1512"
     inkscape:window-height="860"
     inkscape:window-x="0"
     inkscape:window-y="38"
     inkscape:window-maximized="0"
     inkscape:current-layer="svg6" />
  <path
     d="M42.493,26.625C23.037,26.625,7.118,42.544,7.118,62s15.919,35.375,35.375,35.375S77.868,81.456,77.868,62 S61.949,26.625,42.493,26.625z M46.03,33.947c12.769,1.592,22.925,11.779,24.514,24.516H46.03V33.947z M14.193,62 c0-14.361,10.858-26.318,24.763-28.053v56.139C25.052,88.316,14.193,76.363,14.193,62z M46.03,90.051V65.537h24.514 C68.955,78.307,58.799,88.462,46.03,90.051z"
     id="path1"
     style="fill:#ffffff" />
  <text
     xml:space="preserve"
     id="text6"
     style="font-style:normal;font-variant:normal;font-weight:normal;font-stretch:normal;font-size:50.6667px;font-family:Arial;-inkscape-font-specification:Arial;white-space:pre;shape-inside:url(#rect6);fill:#ffffff"
     transform="translate(-9.559322,3.779661)"><tspan
       x="88.271484"
       y="77.163643"
       id="tspan1"> EmpathIDA</tspan></text>
</svg>
